<?xml version="1.0" encoding="UTF-8" standalone="no"?>
<svg
   version="1.0"
   width="39.246861pt"
   height="25.146442pt"
   viewBox="0 0 209.69037 131.76736"
   preserveAspectRatio="xMidYMid meet"
   id="svg1215"
   sodipodi:docname="blixt.svg"
   inkscape:version="1.1.2 (1:1.1+202202050950+0a00cf5339)"
   xmlns:inkscape="http://www.inkscape.org/namespaces/inkscape"
   xmlns:sodipodi="http://sodipodi.sourceforge.net/DTD/sodipodi-0.dtd"
   xmlns="http://www.w3.org/2000/svg"
   xmlns:svg="http://www.w3.org/2000/svg">
  <defs
     id="defs1219" />
  <sodipodi:namedview
     id="namedview1217"
     pagecolor="#505050"
     bordercolor="#eeeeee"
     borderopacity="1"
     inkscape:pageshadow="0"
     inkscape:pageopacity="0"
     inkscape:pagecheckerboard="0"
     inkscape:document-units="pt"
     showgrid="false"
     inkscape:zoom="7.89375"
     inkscape:cx="28.123515"
     inkscape:cy="0.95011876"
     inkscape:window-width="1920"
     inkscape:window-height="1016"
     inkscape:window-x="0"
     inkscape:window-y="27"
     inkscape:window-maximized="1"
     inkscape:current-layer="g1213"
     fit-margin-top="0"
     fit-margin-left="0"
     fit-margin-right="0"
     fit-margin-bottom="0"
     inkscape:snap-page="true" />
  <g
     transform="matrix(0.1,0,0,-0.1,105.89009,174.91204)"
     fill="#006ee6"
     stroke="none"
     id="g1213">
    <path
       id="path31333-5"
       style="fill:#006ee6;stroke-width:1.90241;fill-opacity:1"
       d="m -960.91522,452.2846 c 1.942,4.937 6.768,19.07 32.993,96.612 11.98096,35.426 23.46696,69.099 25.52396,74.828 2.056,5.729 17.592,51.337 34.523,101.35 16.931,50.013 37.328,110.113 45.327,133.556 57.059,167.235 70.199,206.703 70.254,211.031 0.03,2.702 -2.258,7.512 -5.097,10.696 l -5.159,5.785 -71.011,1.393 -71.011,1.394 -10.243,-0.03 c -10.12696,-0.03 -5.78296,-0.37 5.257,41.942 5.425,15.95 13,38.559 56.491,168.617 9.408,28.134 24.555,73.318 33.66,100.409 9.104,27.091 19.643,58.636 23.418,70.098 10.609,32.209 57.438,172.087 70.72,211.24 6.98,20.576 13.623,36.893 16.088,39.519 9.184,9.783 6.874,9.659 146.398,7.856 l 129.89,-1.676 39.403,-0.957 c 0,0 -2.325,-5.07 -6.658,-13.758 -6.065,-12.158 -10.015,-20.19 -24.693,-46.208 -24.762,-43.892 -90.193,-157.707 -91.754,-159.603 -0.852,-1.036 -6.324,-10.384 -12.159,-20.774 -12.211,-21.742 -23.562,-41.682 -57.527,-101.058 -13.371,-23.375 -31.278,-54.826 -39.793,-69.891 -8.516,-15.065 -18.437,-32.322 -22.048,-38.349 -3.611,-6.027 -6.57,-11.341 -6.576,-11.808 0,-0.467 31.632,-1.25 70.307,-1.741 l 70.317,-0.891 6.412,-5.775 c 7.603,-6.849 9.65,-15.054 5.911,-23.695 -1.479,-3.416 -23.663,-41.848 -49.298,-85.405 -25.635,-43.557 -47.568,-80.868 -48.741,-82.914 -1.173,-2.047 -6.895,-11.794 -12.717,-21.661 -5.821,-9.867 -12.403,-21.111 -14.627,-24.986 -5.307,-9.249 -92.446,-157.698 -127.228,-216.744 -14.99,-25.447 -36.18,-61.565 -47.089,-80.262 -10.908,-18.697 -39.32,-67.138 -63.137,-107.646 -23.817,-40.508 -54.72696,-93.198 -68.68896,-117.088 -24.046,-41.145 -31.116,-52.248 -27.64,-43.409 z m 658.40596,1.702 c 1.942,4.938 6.768,19.07 32.993,96.613 11.981,35.426 23.467,69.099 25.524,74.828 2.056,5.729 17.592,51.337 34.523,101.35 16.931,50.013 37.328,110.113 45.327,133.556 57.059,167.234 70.198997,206.702 70.252997,211.031 0.04,2.702 -2.258,7.512 -5.096,10.696 l -5.158997,5.785 -71.011,1.393 -71.011,1.393 -10.243,-0.03 c -10.127,-0.03 -5.783,-0.37 5.257,41.942 5.425,15.95 13,38.559 56.491,168.617 9.408,28.134 24.555,73.318 33.66,100.409 9.104,27.091 19.643,58.636 23.418,70.098 10.609,32.209 57.437997,172.086 70.719997,211.24 6.98,20.576 13.622,36.893 16.088,39.519 9.184,9.783 6.874,9.659 146.397947,7.856 l 129.890006,-1.676 39.403,-0.957 c 0,0 -2.325,-5.07 -6.659,-13.758 -6.064,-12.158 -10.014,-20.191 -24.692,-46.208 -24.762,-43.892 -90.19301,-157.707 -91.75401,-159.603 -0.852,-1.036 -6.324,-10.384 -12.159,-20.775 -12.211,-21.741 -23.562,-41.682 -57.526996,-101.058 -13.371,-23.374 -31.278,-54.825 -39.793,-69.89 -8.516,-15.065 -18.438,-32.322 -22.048,-38.349 -3.611,-6.028 -6.57,-11.341 -6.576,-11.808 0,-0.467 31.632,-1.25 70.307,-1.741 l 70.316996,-0.892 6.412,-5.774 c 7.60301,-6.849 9.65001,-15.054 5.91,-23.695 -1.478,-3.416 -23.662,-41.848 -49.297,-85.405 -25.634996,-43.557 -47.568996,-80.868 -48.740996,-82.915 -1.173,-2.046 -6.895,-11.793 -12.717,-21.66 -5.821,-9.868 -12.403,-21.111 -14.627,-24.986 -5.307,-9.249 -92.445947,-157.699 -127.227947,-216.744 -14.989997,-25.448 -36.179997,-61.565 -47.088997,-80.263 -10.908,-18.697 -39.32,-67.137 -63.137,-107.645 -23.817,-40.508 -54.727,-93.198 -68.689,-117.089 -24.046,-41.144 -31.116,-52.247 -27.64,-43.408 z m 675.93695,8.101 c 1.942,4.937 6.768,19.07 32.993,96.612 11.981,35.426 23.466,69.099 25.523,74.828 2.057,5.729 17.592,51.337 34.524,101.35 16.931,50.013 37.328,110.113 45.326,133.556 57.06,167.235 70.199,206.703 70.254,211.031 0.03,2.702 -2.258,7.512 -5.097,10.696 l -5.158,5.785 -71.011,1.394 -71.011,1.393 -10.244,-0.03 c -10.127,-0.03 -5.783,-0.37 5.258,41.942 5.425,15.95 12.999,38.559 56.49,168.617 9.408,28.134 24.555,73.318 33.66,100.409 9.105,27.091 19.643,58.636 23.419,70.098 10.609,32.209 57.437,172.086 70.719,211.24 6.98,20.576 13.623,36.893 16.088,39.519 9.185,9.783 6.875,9.659 146.399,7.856 l 129.89,-1.676 39.402,-0.957 c 0,0 -2.325,-5.07 -6.658,-13.758 -6.064,-12.158 -10.014,-20.191 -24.692,-46.208 -24.763,-43.892 -90.193,-157.707 -91.754,-159.603 -0.852,-1.036 -6.324,-10.384 -12.16,-20.774 -12.21,-21.742 -23.561,-41.682 -57.526,-101.058 -13.371,-23.375 -31.278,-54.826 -39.794,-69.891 -8.515,-15.065 -18.437,-32.322 -22.048,-38.349 -3.61,-6.027 -6.569,-11.341 -6.575,-11.808 0,-0.467 31.632,-1.25 70.306,-1.741 l 70.318,-0.892 6.411,-5.774 c 7.604,-6.849 9.651,-15.054 5.911,-23.695 -1.479,-3.416 -23.662,-41.848 -49.297,-85.405 -25.635,-43.557 -47.569,-80.868 -48.742,-82.915 -1.172,-2.046 -6.895,-11.793 -12.716,-21.66 -5.822,-9.868 -12.404,-21.111 -14.627,-24.986 -5.307,-9.249 -92.447,-157.699 -127.228,-216.744 -14.99,-25.447 -36.18,-61.565 -47.089,-80.263 -10.909,-18.697 -39.321,-67.137 -63.138,-107.645 -23.816,-40.508 -54.726,-93.198 -68.689,-117.089 -24.046,-41.144 -31.115,-52.247 -27.639,-43.408 z" />
  </g>
</svg>
