<?xml version="1.0" encoding="UTF-8" standalone="no"?>
<svg
   version="1.0"
   width="39.246861pt"
   height="25.146442pt"
   viewBox="0 0 209.69037 131.76736"
   preserveAspectRatio="xMidYMid meet"
   id="svg1215"
   sodipodi:docname="factory.svg"
   inkscape:version="1.1.2 (1:1.1+202202050950+0a00cf5339)"
   xmlns:inkscape="http://www.inkscape.org/namespaces/inkscape"
   xmlns:sodipodi="http://sodipodi.sourceforge.net/DTD/sodipodi-0.dtd"
   xmlns="http://www.w3.org/2000/svg"
   xmlns:svg="http://www.w3.org/2000/svg">
  <defs
     id="defs1219" />
  <sodipodi:namedview
     id="namedview1217"
     pagecolor="#505050"
     bordercolor="#eeeeee"
     borderopacity="1"
     inkscape:pageshadow="0"
     inkscape:pageopacity="0"
     inkscape:pagecheckerboard="0"
     inkscape:document-units="pt"
     showgrid="false"
     inkscape:zoom="7.89375"
     inkscape:cx="28.123515"
     inkscape:cy="0.95011876"
     inkscape:window-width="1920"
     inkscape:window-height="1016"
     inkscape:window-x="0"
     inkscape:window-y="27"
     inkscape:window-maximized="1"
     inkscape:current-layer="g1213"
     fit-margin-top="0"
     fit-margin-left="0"
     fit-margin-right="0"
     fit-margin-bottom="0"
     inkscape:snap-page="true" />
  <g
     transform="matrix(0.1,0,0,-0.1,105.89009,174.91204)"
     fill="#006ee6"
     stroke="none"
     id="g1213">
    <path
       id="path1211"
       style="stroke-width:0.759082;opacity:1;fill:#ed217c;fill-opacity:1"
       d="m -626.15086,1766.1574 c -8.08593,-189.4541 -18.1198,-411.6136 -18.1198,-464.5798 v -43.9628 h -38.02187 -37.87335 V 840.11685 422.61889 h 94.90616 94.90616 v 110.05545 110.05553 h 208.67473 208.82325 V 532.67434 422.61889 h 406.06172 406.06174 l -1.48513,417.49796 -2.22808,418.24065 -147.33476,67.5779 c -81.22179,37.954 -150.2394,68.3205 -153.27567,68.3205 -3.79535,0 -6.83177,-30.3665 -6.83177,-68.3205 v -67.5779 l -114.65975,68.3205 c -64.5219,39.4722 -116.95369,66.7691 -120.74911,62.9737 -3.79534,-3.7953 -7.54201,-34.9045 -9.05992,-69.0632 l -2.22809,-61.4884 -113.917074,64.6074 c -62.244642,35.6769 -117.663349,66.0434 -122.976919,68.3206 -6.831767,3.0364 -9.918097,-15.2672 -11.436267,-64.6075 l -2.22786,-68.3205 -117.63017,70.5484 -117.63016,70.6968 -2.37637,-71.4395 -2.22786,-72.0336 -43.22017,2.2281 -43.3687,2.2281 -15.14934,365.9605 c -3.14292,75.716 -4.30998,79.9687 -7.12908,138.8685 z m 57.77543,-652.7583 h 106.34242 106.19391 v -64.6076 -64.4589 h -106.19391 -106.34242 v 64.4589 z m 318.87874,0 h 106.19391 106.342422 v -64.6076 -64.4589 H -143.30278 -249.49669 v 64.4589 z m 318.730199,0 H 175.57598 281.76985 v -64.6076 -64.4589 H 175.57598 69.233509 v 64.4589 z m 318.878801,0 h 106.19388 106.34246 v -64.6076 -64.4589 H 494.30619 388.11231 v 64.4589 z" />
  </g>
</svg>
