<?xml version="1.0" encoding="UTF-8" standalone="no"?>
<!-- Created with Inkscape (http://www.inkscape.org/) -->

<svg
   width="210mm"
   height="297mm"
   viewBox="0 0 210 297"
   version="1.1"
   id="svg5"
   xml:space="preserve"
   inkscape:version="1.2.1 (9c6d41e410, 2022-07-14)"
   sodipodi:docname="rotation.svg"
   xmlns:inkscape="http://www.inkscape.org/namespaces/inkscape"
   xmlns:sodipodi="http://sodipodi.sourceforge.net/DTD/sodipodi-0.dtd"
   xmlns="http://www.w3.org/2000/svg"
   xmlns:svg="http://www.w3.org/2000/svg"><sodipodi:namedview
     id="namedview7"
     pagecolor="#ffffff"
     bordercolor="#000000"
     borderopacity="0.25"
     inkscape:showpageshadow="2"
     inkscape:pageopacity="0.0"
     inkscape:pagecheckerboard="0"
     inkscape:deskcolor="#d1d1d1"
     inkscape:document-units="mm"
     showgrid="false"
     inkscape:zoom="0.52284039"
     inkscape:cx="-29.645759"
     inkscape:cy="834.86282"
     inkscape:window-width="1920"
     inkscape:window-height="991"
     inkscape:window-x="-9"
     inkscape:window-y="-9"
     inkscape:window-maximized="1"
     inkscape:current-layer="layer1" /><defs
     id="defs2" /><g
     inkscape:label="Lager 1"
     inkscape:groupmode="layer"
     id="layer1"><path
       style="fill:#000000;stroke-width:0.0663109"
       d="m 103.19575,205.43857 c -0.40118,-0.0256 -1.23183,-0.0504 -1.84588,-0.055 -0.61406,-0.005 -1.494333,-0.0533 -1.956173,-0.1081 -0.46184,-0.0548 -1.19779,-0.14595 -1.63544,-0.20254 -0.43765,-0.0566 -1.33285,-0.19239 -1.98933,-0.30176 -0.65647,-0.10938 -1.71579,-0.30379 -2.35403,-0.43203 -0.63825,-0.12823 -1.75724,-0.37755 -2.48666,-0.55404 -0.72942,-0.17649 -1.85867,-0.47417 -2.50945,-0.6615 -0.65077,-0.18732 -1.69517,-0.50686 -2.32088,-0.71009 -0.62571,-0.20323 -1.6485,-0.55756 -2.27287,-0.7874 -0.62437,-0.22984 -1.60909,-0.61162 -2.18826,-0.84841 -0.57918,-0.23679 -1.50064,-0.62962 -2.04771,-0.87297 -0.54706,-0.24334 -1.72574,-0.80774 -2.61928,-1.25422 -0.89354,-0.44647 -2.19158,-1.13503 -2.88453,-1.53012 -0.69294,-0.39509 -1.69258,-0.98627 -2.22141,-1.31373 -0.52883,-0.32746 -1.52847,-0.97651 -2.22142,-1.44233 -0.69295,-0.46582 -1.7509,-1.21145 -2.351,-1.65695 -0.6001,-0.4455 -1.51022,-1.14568 -2.02248,-1.55595 -0.51226,-0.41027 -1.30439,-1.06676 -1.76028,-1.45886 -0.45588,-0.39209 -1.33616,-1.18263 -1.95617,-1.75675 -0.62,-0.57412 -1.66774,-1.59681 -2.3283,-2.27265 -0.66056,-0.67584 -1.65615,-1.74657 -2.21242,-2.37941 -0.55627,-0.63283 -1.46611,-1.71756 -2.02185,-2.41051 -0.55575,-0.69295 -1.31978,-1.67767 -1.69784,-2.18826 -0.37807,-0.51059 -1.13683,-1.59975 -1.68614,-2.42035 -0.54931,-0.8206 -1.32978,-2.04403 -1.73439,-2.71875 -0.40461,-0.67471 -0.95949,-1.62959 -1.23308,-2.12195 -0.27359,-0.49235 -0.82611,-1.55167 -1.22783,-2.35403 -0.40171,-0.80237 -0.88611,-1.802 -1.07643,-2.22142 -0.19033,-0.41942 -0.54977,-1.24573 -0.79878,-1.83625 -0.249,-0.59053 -0.63598,-1.55808 -0.85995,-2.15011 -0.22397,-0.59204 -0.57059,-1.55612 -0.77027,-2.1424 -0.19967,-0.58629 -0.52398,-1.60309 -0.72068,-2.25957 -0.1967,-0.65648 -0.52227,-1.83515 -0.72349,-2.61928 -0.20122,-0.78413 -0.44286,-1.78376 -0.53698,-2.22142 -0.0941,-0.43765 -0.24314,-1.16873 -0.33115,-1.62461 -0.088,-0.45589 -0.20554,-1.09745 -0.26118,-1.42569 -0.0556,-0.32824 -0.17907,-1.119 -0.27428,-1.75724 -0.11501,-0.77102 -0.19146,-1.64735 -0.22783,-2.61142 -0.0301,-0.79805 -0.0391,-1.49182 -0.0199,-1.54173 0.029,-0.0755 0.74131,-0.0907 4.2299,-0.0907 4.19508,0 4.19508,0 4.24101,0.48076 0.0253,0.26441 0.10457,0.94327 0.17624,1.50857 0.0717,0.5653 0.23522,1.63954 0.36343,2.38719 0.12821,0.74766 0.33563,1.82871 0.46094,2.40234 0.1253,0.57362 0.3196,1.40914 0.43177,1.8567 0.11218,0.44757 0.36483,1.36579 0.56146,2.0405 0.19663,0.67471 0.55226,1.79762 0.7903,2.49535 0.23803,0.69773 0.62393,1.75704 0.85756,2.35403 0.23362,0.597 0.64092,1.57781 0.9051,2.17958 0.26419,0.60177 0.80813,1.74976 1.20877,2.5511 0.40063,0.80133 0.95398,1.86065 1.22967,2.35404 0.27569,0.49338 0.7546,1.31482 1.06426,1.82542 0.30966,0.51059 0.8723,1.39654 1.25031,1.96877 0.37801,0.57223 1.01946,1.49727 1.42545,2.05564 0.40598,0.55837 1.13224,1.50757 1.61391,2.10935 0.48166,0.60177 1.21359,1.48005 1.62652,1.95173 0.41292,0.47168 1.17338,1.3072 1.6899,1.85671 0.51652,0.5495 1.38389,1.41861 1.92748,1.93135 0.54359,0.51273 1.29493,1.20525 1.66965,1.5389 0.37472,0.33366 1.08509,0.93941 1.57859,1.34611 0.49351,0.4067 1.45511,1.15843 2.13691,1.6705 0.68179,0.51207 1.86626,1.34766 2.63215,1.85689 0.76589,0.50921 1.78492,1.15948 2.26452,1.44504 0.47959,0.28555 1.24381,0.72757 1.69826,0.98227 0.45445,0.25469 1.34251,0.72153 1.97346,1.03742 1.14718,0.57434 1.14718,0.57434 4.76727,-3.0453 3.17237,-3.17198 3.64468,-3.61965 3.81889,-3.61965 0.1758,0 1.41603,1.21726 10.725563,10.52694 5.78973,5.78981 10.52678,10.57348 10.52678,10.63039 0,0.0874 -0.19812,0.1158 -1.27648,0.18297 -0.70207,0.0437 -2.21645,0.0741 -3.36528,0.0675 -1.14884,-0.007 -2.41704,-0.033 -2.81822,-0.0586 z m 17.70085,-7.12947 c -0.29406,-0.0494 -0.78642,-0.16888 -1.09413,-0.26545 -0.30771,-0.0966 -0.78139,-0.27751 -1.05262,-0.4021 -0.27123,-0.12461 -0.77851,-0.41677 -1.12729,-0.64925 -0.57633,-0.38416 -3.7125,-3.50163 -34.403683,-34.19845 -21.31791,-21.32182 -33.89369,-33.9469 -34.10622,-34.23992 -0.18517,-0.2553 -0.49794,-0.79242 -0.69503,-1.1936 -0.1971,-0.40118 -0.43373,-0.99569 -0.52584,-1.32114 -0.0921,-0.32545 -0.20276,-0.80288 -0.24588,-1.06097 -0.0431,-0.25809 -0.0765,-0.93178 -0.0743,-1.49708 0.003,-0.78746 0.0378,-1.18757 0.14786,-1.71097 0.079,-0.37574 0.23133,-0.92322 0.33841,-1.21664 0.10708,-0.29342 0.31769,-0.76184 0.46802,-1.04093 0.15033,-0.2791 0.43445,-0.73124 0.63138,-1.00478 0.2451,-0.34043 6.08497,-6.2215 18.51151,-18.642071 14.36786,-14.36096 18.25718,-18.21361 18.6508,-18.47499 0.27353,-0.18164 0.70621,-0.43507 0.96151,-0.56318 0.25529,-0.12812 0.681,-0.31082 0.94601,-0.40601 0.26501,-0.0952 0.78721,-0.23743 1.16044,-0.3161 0.52525,-0.11071 0.91836,-0.14391 1.73958,-0.14693 0.75252,-0.003 1.22961,0.0295 1.64103,0.11095 0.31904,0.0632 0.78156,0.17645 1.02782,0.25175 0.24627,0.0753 0.65628,0.22775 0.91114,0.33877 0.25487,0.11103 0.71738,0.35909 1.02782,0.55124 0.31044,0.19215 0.89268,0.64743 1.29386,1.01172 0.40118,0.3643 15.666723,15.60774 33.923433,33.874321 29.06517,29.08088 33.24382,33.28619 33.59447,33.80875 0.22026,0.32824 0.49012,0.77584 0.5997,0.99467 0.10957,0.21882 0.2797,0.62166 0.37805,0.89519 0.0984,0.27354 0.23864,0.73605 0.31174,1.02782 0.0956,0.38165 0.14263,0.84677 0.16756,1.65778 0.0263,0.85515 0.009,1.28314 -0.0713,1.77294 -0.0583,0.35511 -0.19455,0.92207 -0.30278,1.2599 -0.10824,0.33785 -0.33156,0.87835 -0.49628,1.20112 -0.16472,0.32278 -0.43825,0.78529 -0.60784,1.02782 -0.20097,0.28739 -6.62694,6.76292 -18.4521,18.59442 -12.53221,12.53893 -18.29955,18.26578 -18.64755,18.51664 -0.2771,0.19975 -0.76946,0.49875 -1.09413,0.66443 -0.32467,0.16569 -0.86625,0.38965 -1.20352,0.4977 -0.33727,0.10805 -0.88931,0.24124 -1.22675,0.29597 -0.35784,0.058 -1.00044,0.0968 -1.54189,0.093 -0.5106,-0.004 -1.16895,-0.0469 -1.46301,-0.0964 z m 3.31974,-76.552 -33.056013,-33.056011 -17.42317,17.423181 -17.42318,17.42317 33.05593,33.05599 33.055933,33.05599 17.42325,-17.42316 17.42325,-17.42316 z m 40.12244,11.58779 c -0.0253,-0.26441 -0.10458,-0.94327 -0.17625,-1.50857 -0.0717,-0.5653 -0.23525,-1.63954 -0.3635,-2.38719 -0.12824,-0.74766 -0.36543,-1.95709 -0.52706,-2.68763 -0.16164,-0.73054 -0.46045,-1.93905 -0.66403,-2.68559 -0.20358,-0.74654 -0.62052,-2.10992 -0.92654,-3.02975 -0.30602,-0.91982 -0.77935,-2.23277 -1.05185,-2.91768 -0.27249,-0.6849 -0.69432,-1.69287 -0.93739,-2.23994 -0.24307,-0.54706 -0.6914,-1.50194 -0.99628,-2.12195 -0.30489,-0.62 -0.78274,-1.54504 -1.06189,-2.05563 -0.27916,-0.5106 -0.79238,-1.40435 -1.14049,-1.98611 -0.34811,-0.58177 -0.90649,-1.47697 -1.24085,-1.98933 -0.33436,-0.51237 -0.94052,-1.39834 -1.34701,-1.96883 -0.4065,-0.5705 -1.08821,-1.48062 -1.5149,-2.02249 -0.4267,-0.54187 -1.00138,-1.25378 -1.27708,-1.58202 -0.2757,-0.32824 -0.85938,-0.99963 -1.29706,-1.49199 -0.43769,-0.49236 -1.42338,-1.522041 -2.19043,-2.288181 -0.76705,-0.76614 -1.85715,-1.80111 -2.42245,-2.29993 -0.5653,-0.49883 -1.41574,-1.22424 -1.88986,-1.61204 -0.47413,-0.38779 -1.30965,-1.04097 -1.85671,-1.45151 -0.54707,-0.41053 -1.38258,-1.01659 -1.85671,-1.3468 -0.47412,-0.33021 -1.36932,-0.92162 -1.98932,-1.31425 -0.62001,-0.39263 -1.66441,-1.01896 -2.32089,-1.39183 -0.65647,-0.37288 -1.73809,-0.95792 -2.40358,-1.30011 -1.21,-0.62216 -1.21,-0.62216 -4.84092,3.00832 -3.182,3.1816 -3.65551,3.63048 -3.82972,3.63048 -0.1758,0 -1.41603,-1.21726 -10.72557,-10.52693 -7.40158,-7.4017 -10.52678,-10.56887 -10.52678,-10.66817 0,-0.13988 0.0191,-0.14171 1.9874,-0.19012 1.09306,-0.0269 3.26391,-0.0288 4.82411,-0.004 1.65278,0.026 3.26571,0.0861 3.86455,0.14399 0.5653,0.0547 1.49034,0.15934 2.05564,0.23262 0.5653,0.0733 1.62793,0.23536 2.36139,0.36018 0.73347,0.12482 1.83754,0.33095 2.4535,0.45807 0.61597,0.12712 1.67197,0.36768 2.34669,0.53458 0.67471,0.16689 1.70419,0.43798 2.28772,0.6024 0.58354,0.16442 1.70254,0.51021 2.48666,0.76841 0.78413,0.25821 1.96281,0.67139 2.61929,0.91817 0.65647,0.24679 1.67103,0.64807 2.25457,0.89174 0.58353,0.24366 1.58317,0.68188 2.22141,0.97382 0.63824,0.29194 1.68264,0.8005 2.32088,1.13012 0.63825,0.32963 1.59312,0.83957 2.12195,1.1332 0.52883,0.29364 1.45387,0.83147 2.05564,1.19519 0.60177,0.36371 1.63125,1.01855 2.28773,1.4552 0.65648,0.43664 1.55167,1.05049 1.98933,1.36411 0.43765,0.31362 1.28808,0.94972 1.88985,1.41356 0.60178,0.46383 1.42237,1.11585 1.82355,1.44893 0.40118,0.33309 1.19194,1.01327 1.75724,1.51153 0.5653,0.49825 1.8205,1.69718 2.78933,2.66428 0.96883,0.9671 2.14469,2.19105 2.61302,2.71988 0.46833,0.52883 1.26948,1.46878 1.78033,2.08879 0.51085,0.62001 1.35286,1.69425 1.87112,2.38719 0.51826,0.692951 1.34519,1.856711 1.8376,2.586131 0.49242,0.72942 1.16308,1.7589 1.49034,2.28773 0.32726,0.52883 0.83468,1.37926 1.1276,1.88986 0.29292,0.51059 0.84307,1.52515 1.22256,2.25457 0.37949,0.72942 0.9225,1.81553 1.2067,2.41358 0.2842,0.59805 0.73408,1.59769 0.99975,2.22142 0.26567,0.62373 0.68401,1.65625 0.92965,2.29449 0.24564,0.63824 0.62437,1.68264 0.84163,2.32088 0.21726,0.63824 0.56934,1.74232 0.7824,2.45351 0.21305,0.71118 0.55263,1.94954 0.75463,2.7519 0.20199,0.80236 0.48672,2.04072 0.63272,2.7519 0.14601,0.71119 0.3264,1.65114 0.40087,2.08879 0.0745,0.43766 0.21063,1.31324 0.30257,1.94576 0.0919,0.63251 0.16716,1.44841 0.16716,1.81312 0,0.3647 0.0336,1.0168 0.0746,1.44911 0.0654,0.68852 0.0619,0.79878 -0.0284,0.88904 -0.091,0.091 -0.58768,0.10305 -4.24365,0.10305 -4.1406,0 -4.1406,0 -4.18652,-0.48076 z"
       id="path316"
       sodipodi:nodetypes="scsssssssssssssssssssssssssssssssssscsscscssssssssssssssssssssssssssssscsscsssssssscsssssssssccsssssssssscssssssssccccccccccccsssssssssssssssssssssssssssssccssssssssssssssssssssssssssssssssssscssss" /></g></svg>
