<?xml version="1.0" encoding="UTF-8" standalone="no"?>
<svg
   version="1.0"
   width="39.246861pt"
   height="25.146442pt"
   viewBox="0 0 209.69037 131.76736"
   preserveAspectRatio="xMidYMid meet"
   id="svg1215"
   sodipodi:docname="truck.svg"
   inkscape:version="1.1.1 (3bf5ae0d25, 2021-09-20)"
   xmlns:inkscape="http://www.inkscape.org/namespaces/inkscape"
   xmlns:sodipodi="http://sodipodi.sourceforge.net/DTD/sodipodi-0.dtd"
   xmlns="http://www.w3.org/2000/svg"
   xmlns:svg="http://www.w3.org/2000/svg">
  <defs
     id="defs1219" />
  <sodipodi:namedview
     id="namedview1217"
     pagecolor="#505050"
     bordercolor="#eeeeee"
     borderopacity="1"
     inkscape:pageshadow="0"
     inkscape:pageopacity="0"
     inkscape:pagecheckerboard="0"
     inkscape:document-units="pt"
     showgrid="false"
     inkscape:zoom="7.89375"
     inkscape:cx="28.186857"
     inkscape:cy="0.95011876"
     inkscape:window-width="1920"
     inkscape:window-height="1017"
     inkscape:window-x="-8"
     inkscape:window-y="-8"
     inkscape:window-maximized="1"
     inkscape:current-layer="g1213"
     fit-margin-top="0"
     fit-margin-left="0"
     fit-margin-right="0"
     fit-margin-bottom="0"
     inkscape:snap-page="true" />
  <g
     transform="matrix(0.1,0,0,-0.1,105.89009,174.91204)"
     fill="#006ee6"
     stroke="none"
     id="g1213">
    <g
       transform="matrix(0.22355051,0,0,0.22355051,-1061.1364,560.54784)"
       fill="#000000"
       stroke="none"
       id="g293"
       style="fill:#77b6ea;fill-opacity:1">
      <path
         d="m 17,4763 c -4,-3 -7,-726 -7,-1605 V 1560 H 3010 6010 V 3165 4770 H 3017 c -1647,0 -2997,-3 -3000,-7 z"
         id="path283"
         style="fill:#77b6ea;fill-opacity:1" />
      <path
         d="M 6280,3050 V 1330 H 4805 c -811,0 -1475,-3 -1475,-6 0,-4 15,-30 34,-58 92,-140 156,-336 156,-482 v -54 l 1548,2 1547,3 7,90 c 12,154 70,317 165,464 55,84 207,228 302,285 174,105 362,152 561,143 148,-8 261,-36 385,-96 323,-158 525,-452 560,-818 l 7,-73 h 394 394 v 834 834 l -51,208 c -38,157 -116,403 -312,987 l -262,779 -417,199 -418,199 h -825 -825 z m 2419,338 c 107,-321 196,-589 199,-595 3,-10 -215,-13 -1072,-13 H 6750 v 595 595 h 878 877 z"
         id="path285"
         style="fill:#77b6ea;fill-opacity:1" />
      <path
         d="m 2411,1449 c -77,-13 -184,-52 -249,-91 -73,-43 -217,-187 -260,-260 -212,-361 -69,-829 313,-1021 214,-107 491,-92 701,38 82,51 194,165 242,247 70,118 109,284 99,418 -25,314 -241,575 -542,655 -74,20 -232,27 -304,14 z m 212,-334 c 82,-21 133,-50 188,-105 193,-193 137,-516 -111,-634 -60,-29 -73,-31 -170,-31 -93,0 -112,3 -162,27 -118,55 -206,170 -228,299 -41,233 145,450 390,458 20,1 62,-6 93,-14 z"
         id="path287"
         style="fill:#77b6ea;fill-opacity:1" />
      <path
         d="m 7470,1445 c -227,-46 -411,-186 -514,-391 -49,-100 -67,-166 -73,-279 -20,-365 223,-681 582,-755 81,-17 227,-15 311,5 38,9 105,33 149,55 372,181 515,622 322,994 -49,95 -177,231 -269,284 -149,88 -341,121 -508,87 z m 212,-326 c 124,-26 232,-112 286,-226 24,-52 27,-70 27,-163 0,-93 -3,-112 -27,-162 -37,-80 -107,-152 -187,-191 -62,-30 -72,-32 -176,-32 -104,0 -113,2 -170,32 -152,79 -235,225 -221,388 18,231 243,401 468,354 z"
         id="path289"
         style="fill:#77b6ea;fill-opacity:1" />
      <path
         d="m 352,1123 3,-207 130,-92 130,-92 461,-1 461,-1 6,83 c 12,150 60,297 143,433 24,40 44,75 44,78 0,3 -311,6 -690,6 H 350 Z"
         id="path291"
         style="fill:#77b6ea;fill-opacity:1" />
    </g>
  </g>
</svg>
